<svg xmlns="http://www.w3.org/2000/svg" version="1.1" xmlns:xlink="http://www.w3.org/1999/xlink" xmlns:svgjs="http://svgjs.dev/svgjs" width="1500" height="1500" viewBox="0 0 1500 1500"><rect width="1500" height="1500" fill="#ffffff"></rect><g transform="matrix(0.6666666666666666,0,0,0.6666666666666666,249.39393939393938,438.5856950067477)"><svg viewBox="0 0 396 247" data-background-color="#ffffff" preserveAspectRatio="xMidYMid meet" height="935" width="1500" xmlns="http://www.w3.org/2000/svg" xmlns:xlink="http://www.w3.org/1999/xlink"><g id="tight-bounds" transform="matrix(1,0,0,1,0.2400000000000091,-0.09999999999999432)"><svg viewBox="0 0 395.52 247.2" height="247.2" width="395.52"><g><svg></svg></g><g><svg viewBox="0 0 395.52 247.2" height="247.2" width="395.52"><mask id="6abd9f88-b2b8-476b-87c3-92fe8dd0099f"><rect width="640" height="400" fill="white"></rect><g transform="matrix(1,0,0,1,39.55199999999999,65.79724192485168)"><svg viewBox="0 0 316.416 115.60551615029665" height="115.60551615029665" width="316.416"><g><svg viewBox="0 0 316.416 115.60551615029665" height="115.60551615029665" width="316.416"><g><svg viewBox="0 0 316.416 115.60551615029665" height="115.60551615029665" width="316.416"><g><svg viewBox="0 0 316.416 115.60551615029665" height="115.60551615029665" width="316.416"><g id="SvgjsG5516"><svg viewBox="0 0 316.416 115.60551615029665" height="115.60551615029665" width="316.416" id="SvgjsSvg5515"><g><svg viewBox="0 0 316.416 115.60551615029665" height="115.60551615029665" width="316.416"><g transform="matrix(1,0,0,1,0,0)"><svg width="316.416" viewBox="-2.2 -44 152.67999999999998 56.43000000000001" height="115.60551615029665" data-palette-color="#556970"><path d="M9.88 8.43L9.88 8.43Q6.2 8.43 4.13 7.36 2.05 6.3 1.85 4.17L1.85 4.17Q1.83 3.83 1.81 3.53 1.8 3.23 1.8 2.95L1.8 2.95Q1.85 1.6 2.88 0.76 3.9-0.08 5.15-0.28L5.15-0.28 5.15-0.95Q3.7-1.35 3.15-2.01 2.6-2.68 2.5-3.58L2.5-3.58Q2.5-3.73 2.48-4 2.45-4.28 2.48-4.55L2.48-4.55Q2.58-5.55 3.34-6.28 4.1-7 5.25-7.15L5.25-7.15 5.25-7.88Q3.7-8.58 3-9.98 2.3-11.38 2.15-13.7L2.15-13.7Q2.1-14.55 2.08-15.91 2.05-17.28 2.05-18.76 2.05-20.25 2.08-21.58 2.1-22.9 2.15-23.75L2.15-23.75Q2.33-26.18 3.1-27.63 3.88-29.08 5.45-29.73 7.03-30.38 9.6-30.38L9.6-30.38Q12.28-30.38 13.86-29.68 15.45-28.98 16.2-27.4L16.2-27.4 16.85-27.4Q17-28.65 17.9-29.33 18.8-30 20.28-30L20.28-30 20.28-26.88 19.73-26.88Q18.5-26.88 17.76-26.03 17.03-25.18 17.03-23.35L17.03-23.35 17.03-22.13Q17.03-22.03 17.04-20.99 17.05-19.95 17.05-18.53 17.05-17.1 17.04-15.76 17.03-14.43 16.98-13.68L16.98-13.68Q16.85-11.28 16.07-9.83 15.3-8.38 13.74-7.75 12.18-7.13 9.58-7.13L9.58-7.13Q7.58-7.15 6.63-6.7 5.68-6.25 5.68-5.25L5.68-5.25 5.68-4.98Q5.68-4.35 6.13-3.98 6.58-3.6 7.51-3.41 8.45-3.23 9.95-3.2L9.95-3.2Q14.05-3.05 16.03-1.91 18-0.78 18.23 1.88L18.23 1.88Q18.28 2.2 18.28 2.59 18.28 2.98 18.23 3.33L18.23 3.33Q18.07 5.28 16.98 6.4 15.88 7.53 14.05 7.98 12.23 8.43 9.88 8.43ZM9.85 5.55L9.85 5.55Q11.45 5.55 12.51 5.34 13.58 5.13 14.16 4.59 14.75 4.05 14.9 3.13L14.9 3.13Q14.98 2.8 14.96 2.53 14.95 2.25 14.9 1.95L14.9 1.95Q14.78 1.13 14.26 0.66 13.75 0.2 12.7 0 11.65-0.2 9.85-0.23L9.85-0.23Q7.78-0.28 6.56 0.11 5.35 0.5 5.2 2.02L5.2 2.02Q5.15 2.48 5.15 2.68 5.15 2.88 5.2 3.15L5.2 3.15Q5.3 4.15 5.88 4.66 6.45 5.18 7.46 5.36 8.47 5.55 9.85 5.55ZM9.6-10.18L9.6-10.18Q11.5-10.18 12.24-10.91 12.98-11.65 13.1-13.3L13.1-13.3Q13.15-14.1 13.18-15.63 13.2-17.15 13.2-18.88 13.2-20.6 13.18-22.08 13.15-23.55 13.1-24.25L13.1-24.25Q13-25.88 12.25-26.59 11.5-27.3 9.63-27.3L9.63-27.3Q7.75-27.3 6.94-26.59 6.13-25.88 6.03-24.13L6.03-24.13Q6-23.5 5.98-22.04 5.95-20.58 5.94-18.85 5.93-17.13 5.95-15.61 5.98-14.1 6.03-13.33L6.03-13.33Q6.15-11.68 6.91-10.93 7.68-10.18 9.6-10.18ZM30.05 0.38L30.05 0.38Q26.1 0.38 24.39-1.18 22.67-2.73 22.5-6.18L22.5-6.18Q22.45-7.98 22.41-10.21 22.37-12.45 22.37-14.84 22.37-17.23 22.4-19.53 22.42-21.83 22.5-23.78L22.5-23.78Q22.67-27.33 24.44-28.85 26.2-30.38 30-30.38L30-30.38Q33.82-30.38 35.5-28.83 37.17-27.28 37.32-23.95L37.32-23.95Q37.35-23.38 37.36-21.76 37.37-20.15 37.36-18.11 37.35-16.07 37.27-14.23L37.27-14.23 26.4-14.23Q26.4-12.15 26.44-10.04 26.47-7.93 26.5-5.75L26.5-5.75Q26.55-4.05 27.37-3.4 28.2-2.75 29.97-2.75L29.97-2.75Q31.75-2.75 32.51-3.4 33.27-4.05 33.35-5.75L33.35-5.75Q33.4-6.5 33.39-7.8 33.37-9.1 33.3-10.5L33.3-10.5 37.27-10.5Q37.32-9.65 37.35-8.31 37.37-6.98 37.32-6.18L37.32-6.18Q37.15-2.68 35.51-1.15 33.87 0.38 30.05 0.38ZM26.4-17.28L26.4-17.28 33.4-17.28Q33.42-18.68 33.44-20.11 33.45-21.55 33.42-22.69 33.4-23.83 33.35-24.28L33.35-24.28Q33.25-25.98 32.45-26.64 31.65-27.3 30-27.3L30-27.3Q28.1-27.3 27.32-26.55 26.55-25.8 26.5-24.28L26.5-24.28Q26.47-22.58 26.44-20.81 26.4-19.05 26.4-17.28ZM49.25 0.38L49.25 0.38Q45.3 0.38 43.58-1.18 41.87-2.73 41.7-6.18L41.7-6.18Q41.65-7.98 41.61-10.21 41.57-12.45 41.57-14.84 41.57-17.23 41.6-19.53 41.62-21.83 41.7-23.78L41.7-23.78Q41.87-27.33 43.63-28.85 45.4-30.38 49.2-30.38L49.2-30.38Q53.02-30.38 54.7-28.83 56.37-27.28 56.52-23.95L56.52-23.95Q56.55-23.38 56.56-21.76 56.57-20.15 56.56-18.11 56.55-16.07 56.47-14.23L56.47-14.23 45.6-14.23Q45.6-12.15 45.63-10.04 45.67-7.93 45.7-5.75L45.7-5.75Q45.75-4.05 46.57-3.4 47.4-2.75 49.17-2.75L49.17-2.75Q50.95-2.75 51.71-3.4 52.47-4.05 52.55-5.75L52.55-5.75Q52.6-6.5 52.58-7.8 52.57-9.1 52.5-10.5L52.5-10.5 56.47-10.5Q56.52-9.65 56.55-8.31 56.57-6.98 56.52-6.18L56.52-6.18Q56.35-2.68 54.71-1.15 53.07 0.38 49.25 0.38ZM45.6-17.28L45.6-17.28 52.6-17.28Q52.62-18.68 52.63-20.11 52.65-21.55 52.62-22.69 52.6-23.83 52.55-24.28L52.55-24.28Q52.45-25.98 51.65-26.64 50.85-27.3 49.2-27.3L49.2-27.3Q47.3-27.3 46.52-26.55 45.75-25.8 45.7-24.28L45.7-24.28Q45.67-22.58 45.63-20.81 45.6-19.05 45.6-17.28ZM65.22 0L61.32 0 61.32-40 65.12-40 65.12-32.25 64.74-16.8 65.62-16.8 68.54-24.28 71.17-30 75.34-30 69.49-17.75 76.67 0 72.47 0 67.07-13.55 65.22-10.2 65.22 0ZM83.49 0L79.49 0 79.49-30 83.49-30 83.49-27.25 84.37-27.25Q85.22-28.8 86.39-29.59 87.57-30.38 89.42-30.38L89.42-30.38Q92.19-30.38 93.53-28.88 94.87-27.38 94.89-24.05L94.89-24.05 94.89 0 90.92 0 90.92-24.35Q90.89-25.95 90.19-26.65 89.49-27.35 87.97-27.35L87.97-27.35Q86.52-27.35 85.25-26.58 83.99-25.8 83.49-24.43L83.49-24.43 83.49 0ZM107.41 0.38L107.41 0.38Q103.46 0.38 101.75-1.18 100.04-2.73 99.86-6.18L99.86-6.18Q99.81-7.98 99.78-10.21 99.74-12.45 99.74-14.84 99.74-17.23 99.76-19.53 99.79-21.83 99.86-23.78L99.86-23.78Q100.04-27.33 101.8-28.85 103.56-30.38 107.36-30.38L107.36-30.38Q111.19-30.38 112.86-28.83 114.54-27.28 114.69-23.95L114.69-23.95Q114.71-23.38 114.73-21.76 114.74-20.15 114.73-18.11 114.71-16.07 114.64-14.23L114.64-14.23 103.76-14.23Q103.76-12.15 103.8-10.04 103.84-7.93 103.86-5.75L103.86-5.75Q103.91-4.05 104.74-3.4 105.56-2.75 107.34-2.75L107.34-2.75Q109.11-2.75 109.88-3.4 110.64-4.05 110.71-5.75L110.71-5.75Q110.76-6.5 110.75-7.8 110.74-9.1 110.66-10.5L110.66-10.5 114.64-10.5Q114.69-9.65 114.71-8.31 114.74-6.98 114.69-6.18L114.69-6.18Q114.51-2.68 112.88-1.15 111.24 0.38 107.41 0.38ZM103.76-17.28L103.76-17.28 110.76-17.28Q110.79-18.68 110.8-20.11 110.81-21.55 110.79-22.69 110.76-23.83 110.71-24.28L110.71-24.28Q110.61-25.98 109.81-26.64 109.01-27.3 107.36-27.3L107.36-27.3Q105.46-27.3 104.69-26.55 103.91-25.8 103.86-24.28L103.86-24.28Q103.84-22.58 103.8-20.81 103.76-19.05 103.76-17.28ZM127.16 0.38L127.16 0.38Q123.14 0.38 121.51-1.13 119.89-2.63 119.89-6.23L119.89-6.23 119.86-26.9 117.51-26.9 117.51-30 119.99-30 119.99-38.5 123.99-38.5 123.99-30 129.19-30 129.19-26.9 123.86-26.9 123.89-5.78Q123.89-3.98 124.55-3.34 125.21-2.7 127.24-2.7L127.24-2.7Q127.99-2.7 128.52-2.74 129.06-2.78 129.79-2.85L129.79-2.85 129.79 0.13Q129.19 0.23 128.55 0.3 127.91 0.38 127.16 0.38ZM139.11 0.38L139.11 0.38Q135.33 0.38 133.82-1.15 132.31-2.68 132.16-6.15L132.16-6.15Q132.13-7.28 132.15-8.3 132.16-9.33 132.21-10.43L132.21-10.43 135.83-10.43Q135.76-8.9 135.77-7.75 135.78-6.6 135.78-5.75L135.78-5.75Q135.81-4.05 136.57-3.39 137.33-2.73 139.11-2.73L139.11-2.73Q141.01-2.73 141.83-3.39 142.66-4.05 142.71-5.78L142.71-5.78Q142.73-6.5 142.73-7.03 142.73-7.55 142.73-8.04 142.73-8.53 142.71-9.13L142.71-9.13Q142.66-10.9 142.21-11.74 141.76-12.58 140.33-13.03L140.33-13.03 137.58-13.8Q135.61-14.38 134.43-15.24 133.26-16.1 132.72-17.49 132.18-18.88 132.11-21.08L132.11-21.08Q132.08-21.98 132.08-22.56 132.08-23.15 132.11-23.8L132.11-23.8Q132.21-27.3 133.8-28.84 135.38-30.38 139.33-30.38L139.33-30.38Q143.06-30.38 144.62-28.89 146.18-27.4 146.31-23.85L146.31-23.85Q146.31-23.33 146.31-21.94 146.31-20.55 146.21-19.65L146.21-19.65 142.51-19.65Q142.56-20.45 142.56-21.33 142.56-22.2 142.56-22.99 142.56-23.78 142.53-24.33L142.53-24.33Q142.51-26 141.82-26.64 141.13-27.28 139.33-27.28L139.33-27.28Q137.53-27.28 136.82-26.64 136.11-26 136.06-24.3L136.06-24.3Q136.06-23.85 136.03-23.1 136.01-22.35 136.01-21.48L136.01-21.48Q136.06-19.7 136.46-18.63 136.86-17.55 138.43-17.1L138.43-17.1 141.03-16.43Q143.83-15.7 145.16-14.09 146.48-12.48 146.48-9.25L146.48-9.25Q146.48-8.35 146.48-7.66 146.48-6.98 146.43-6.05L146.43-6.05Q146.33-2.63 144.72-1.13 143.11 0.38 139.11 0.38Z" opacity="1" transform="matrix(1,0,0,1,0,0)" fill="black" class="wordmark-text-0" id="SvgjsPath5514" stroke-width="7" stroke="black" stroke-linejoin="round"></path></svg></g></svg></g></svg></g></svg></g></svg></g></svg></g></svg></g></mask><g transform="matrix(1,0,0,1,39.55199999999999,65.79724192485168)"><svg viewBox="0 0 316.416 115.60551615029665" height="115.60551615029665" width="316.416"><g><svg viewBox="0 0 316.416 115.60551615029665" height="115.60551615029665" width="316.416"><g><svg viewBox="0 0 316.416 115.60551615029665" height="115.60551615029665" width="316.416"><g><svg viewBox="0 0 316.416 115.60551615029665" height="115.60551615029665" width="316.416"><g id="textblocktransform"><svg viewBox="0 0 316.416 115.60551615029665" height="115.60551615029665" width="316.416" id="textblock"><g><svg viewBox="0 0 316.416 115.60551615029665" height="115.60551615029665" width="316.416"><g transform="matrix(1,0,0,1,0,0)"><svg width="316.416" viewBox="-2.2 -44 152.67999999999998 56.43000000000001" height="115.60551615029665" data-palette-color="#556970"><path d="M9.88 8.43L9.88 8.43Q6.2 8.43 4.13 7.36 2.05 6.3 1.85 4.17L1.85 4.17Q1.83 3.83 1.81 3.53 1.8 3.23 1.8 2.95L1.8 2.95Q1.85 1.6 2.88 0.76 3.9-0.08 5.15-0.28L5.15-0.28 5.15-0.95Q3.7-1.35 3.15-2.01 2.6-2.68 2.5-3.58L2.5-3.58Q2.5-3.73 2.48-4 2.45-4.28 2.48-4.55L2.48-4.55Q2.58-5.55 3.34-6.28 4.1-7 5.25-7.15L5.25-7.15 5.25-7.88Q3.7-8.58 3-9.98 2.3-11.38 2.15-13.7L2.15-13.7Q2.1-14.55 2.08-15.91 2.05-17.28 2.05-18.76 2.05-20.25 2.08-21.58 2.1-22.9 2.15-23.75L2.15-23.75Q2.33-26.18 3.1-27.63 3.88-29.08 5.45-29.73 7.03-30.38 9.6-30.38L9.6-30.38Q12.28-30.38 13.86-29.68 15.45-28.98 16.2-27.4L16.2-27.4 16.85-27.4Q17-28.65 17.9-29.33 18.8-30 20.28-30L20.28-30 20.28-26.88 19.73-26.88Q18.5-26.88 17.76-26.03 17.03-25.18 17.03-23.35L17.03-23.35 17.03-22.13Q17.03-22.03 17.04-20.99 17.05-19.95 17.05-18.53 17.05-17.1 17.04-15.76 17.03-14.43 16.98-13.68L16.98-13.68Q16.85-11.28 16.07-9.83 15.3-8.38 13.74-7.75 12.18-7.13 9.58-7.13L9.58-7.13Q7.58-7.15 6.63-6.7 5.68-6.25 5.68-5.25L5.68-5.25 5.68-4.98Q5.68-4.35 6.13-3.98 6.58-3.6 7.51-3.41 8.45-3.23 9.95-3.2L9.95-3.2Q14.05-3.05 16.03-1.91 18-0.78 18.23 1.88L18.23 1.88Q18.28 2.2 18.28 2.59 18.28 2.98 18.23 3.33L18.23 3.33Q18.07 5.28 16.98 6.4 15.88 7.53 14.05 7.98 12.23 8.43 9.88 8.43ZM9.85 5.55L9.85 5.55Q11.45 5.55 12.51 5.34 13.58 5.13 14.16 4.59 14.75 4.05 14.9 3.13L14.9 3.13Q14.98 2.8 14.96 2.53 14.95 2.25 14.9 1.95L14.9 1.95Q14.78 1.13 14.26 0.66 13.75 0.2 12.7 0 11.65-0.2 9.85-0.23L9.85-0.23Q7.78-0.28 6.56 0.11 5.35 0.5 5.2 2.02L5.2 2.02Q5.15 2.48 5.15 2.68 5.15 2.88 5.2 3.15L5.2 3.15Q5.3 4.15 5.88 4.66 6.45 5.18 7.46 5.36 8.47 5.55 9.85 5.55ZM9.6-10.18L9.6-10.18Q11.5-10.18 12.24-10.91 12.98-11.65 13.1-13.3L13.1-13.3Q13.15-14.1 13.18-15.63 13.2-17.15 13.2-18.88 13.2-20.6 13.18-22.08 13.15-23.55 13.1-24.25L13.1-24.25Q13-25.88 12.25-26.59 11.5-27.3 9.63-27.3L9.63-27.3Q7.75-27.3 6.94-26.59 6.13-25.88 6.03-24.13L6.03-24.13Q6-23.5 5.98-22.04 5.95-20.58 5.94-18.85 5.93-17.13 5.95-15.61 5.98-14.1 6.03-13.33L6.03-13.33Q6.15-11.68 6.91-10.93 7.68-10.18 9.6-10.18ZM30.05 0.38L30.05 0.38Q26.1 0.38 24.39-1.18 22.67-2.73 22.5-6.18L22.5-6.18Q22.45-7.98 22.41-10.21 22.37-12.45 22.37-14.84 22.37-17.23 22.4-19.53 22.42-21.83 22.5-23.78L22.5-23.78Q22.67-27.33 24.44-28.85 26.2-30.38 30-30.38L30-30.38Q33.82-30.38 35.5-28.83 37.17-27.28 37.32-23.95L37.32-23.95Q37.35-23.38 37.36-21.76 37.37-20.15 37.36-18.11 37.35-16.07 37.27-14.23L37.27-14.23 26.4-14.23Q26.4-12.15 26.44-10.04 26.47-7.93 26.5-5.75L26.5-5.75Q26.55-4.05 27.37-3.4 28.2-2.75 29.97-2.75L29.97-2.75Q31.75-2.75 32.51-3.4 33.27-4.05 33.35-5.75L33.35-5.75Q33.4-6.5 33.39-7.8 33.37-9.1 33.3-10.5L33.3-10.5 37.27-10.5Q37.32-9.65 37.35-8.31 37.37-6.98 37.32-6.18L37.32-6.18Q37.15-2.68 35.51-1.15 33.87 0.38 30.05 0.38ZM26.4-17.28L26.4-17.28 33.4-17.28Q33.42-18.68 33.44-20.11 33.45-21.55 33.42-22.69 33.4-23.83 33.35-24.28L33.35-24.28Q33.25-25.98 32.45-26.64 31.65-27.3 30-27.3L30-27.3Q28.1-27.3 27.32-26.55 26.55-25.8 26.5-24.28L26.5-24.28Q26.47-22.58 26.44-20.81 26.4-19.05 26.4-17.28ZM49.25 0.38L49.25 0.38Q45.3 0.38 43.58-1.18 41.87-2.73 41.7-6.18L41.7-6.18Q41.65-7.98 41.61-10.21 41.57-12.45 41.57-14.84 41.57-17.23 41.6-19.53 41.62-21.83 41.7-23.78L41.7-23.78Q41.87-27.33 43.63-28.85 45.4-30.38 49.2-30.38L49.2-30.38Q53.02-30.38 54.7-28.83 56.37-27.28 56.52-23.95L56.52-23.95Q56.55-23.38 56.56-21.76 56.57-20.15 56.56-18.11 56.55-16.07 56.47-14.23L56.47-14.23 45.6-14.23Q45.6-12.15 45.63-10.04 45.67-7.93 45.7-5.75L45.7-5.75Q45.75-4.05 46.57-3.4 47.4-2.75 49.17-2.75L49.17-2.75Q50.95-2.75 51.71-3.4 52.47-4.05 52.55-5.75L52.55-5.75Q52.6-6.5 52.58-7.8 52.57-9.1 52.5-10.5L52.5-10.5 56.47-10.5Q56.52-9.65 56.55-8.31 56.57-6.98 56.52-6.18L56.52-6.18Q56.35-2.68 54.71-1.15 53.07 0.38 49.25 0.38ZM45.6-17.28L45.6-17.28 52.6-17.28Q52.62-18.68 52.63-20.11 52.65-21.55 52.62-22.69 52.6-23.83 52.55-24.28L52.55-24.28Q52.45-25.98 51.65-26.64 50.85-27.3 49.2-27.3L49.2-27.3Q47.3-27.3 46.52-26.55 45.75-25.8 45.7-24.28L45.7-24.28Q45.67-22.58 45.63-20.81 45.6-19.05 45.6-17.28ZM65.22 0L61.32 0 61.32-40 65.12-40 65.12-32.25 64.74-16.8 65.62-16.8 68.54-24.28 71.17-30 75.34-30 69.49-17.75 76.67 0 72.47 0 67.07-13.55 65.22-10.2 65.22 0ZM83.49 0L79.49 0 79.49-30 83.49-30 83.49-27.25 84.37-27.25Q85.22-28.8 86.39-29.59 87.57-30.38 89.42-30.38L89.42-30.38Q92.19-30.38 93.53-28.88 94.87-27.38 94.89-24.05L94.89-24.05 94.89 0 90.92 0 90.92-24.35Q90.89-25.95 90.19-26.65 89.49-27.35 87.97-27.35L87.97-27.35Q86.52-27.35 85.25-26.58 83.99-25.8 83.49-24.43L83.49-24.43 83.49 0ZM107.41 0.38L107.41 0.38Q103.46 0.38 101.75-1.18 100.04-2.73 99.86-6.18L99.86-6.18Q99.81-7.98 99.78-10.21 99.74-12.45 99.74-14.84 99.74-17.23 99.76-19.53 99.79-21.83 99.86-23.78L99.86-23.78Q100.04-27.33 101.8-28.85 103.56-30.38 107.36-30.38L107.36-30.38Q111.19-30.38 112.86-28.83 114.54-27.28 114.69-23.95L114.69-23.95Q114.71-23.38 114.73-21.76 114.74-20.15 114.73-18.11 114.71-16.07 114.64-14.23L114.64-14.23 103.76-14.23Q103.76-12.15 103.8-10.04 103.84-7.93 103.86-5.75L103.86-5.75Q103.91-4.05 104.74-3.4 105.56-2.75 107.34-2.75L107.34-2.75Q109.11-2.75 109.88-3.4 110.64-4.05 110.71-5.75L110.71-5.75Q110.76-6.5 110.75-7.8 110.74-9.1 110.66-10.5L110.66-10.5 114.64-10.5Q114.69-9.65 114.71-8.31 114.74-6.98 114.69-6.18L114.69-6.18Q114.51-2.68 112.88-1.15 111.24 0.38 107.41 0.38ZM103.76-17.28L103.76-17.28 110.76-17.28Q110.79-18.68 110.8-20.11 110.81-21.55 110.79-22.69 110.76-23.83 110.71-24.28L110.71-24.28Q110.61-25.98 109.81-26.64 109.01-27.3 107.36-27.3L107.36-27.3Q105.46-27.3 104.69-26.55 103.91-25.8 103.86-24.28L103.86-24.28Q103.84-22.58 103.8-20.81 103.76-19.05 103.76-17.28ZM127.16 0.38L127.16 0.38Q123.14 0.38 121.51-1.13 119.89-2.63 119.89-6.23L119.89-6.23 119.86-26.9 117.51-26.9 117.51-30 119.99-30 119.99-38.5 123.99-38.5 123.99-30 129.19-30 129.19-26.9 123.86-26.9 123.89-5.78Q123.89-3.98 124.55-3.34 125.21-2.7 127.24-2.7L127.24-2.7Q127.99-2.7 128.52-2.74 129.06-2.78 129.79-2.85L129.79-2.85 129.79 0.13Q129.19 0.23 128.55 0.3 127.91 0.38 127.16 0.38ZM139.11 0.38L139.11 0.38Q135.33 0.38 133.82-1.15 132.31-2.68 132.16-6.15L132.16-6.15Q132.13-7.28 132.15-8.3 132.16-9.33 132.21-10.43L132.21-10.43 135.83-10.43Q135.76-8.9 135.77-7.75 135.78-6.6 135.78-5.75L135.78-5.75Q135.81-4.05 136.57-3.39 137.33-2.73 139.11-2.73L139.11-2.73Q141.01-2.73 141.83-3.39 142.66-4.05 142.71-5.78L142.71-5.78Q142.73-6.5 142.73-7.03 142.73-7.55 142.73-8.04 142.73-8.53 142.71-9.13L142.71-9.13Q142.66-10.9 142.21-11.74 141.76-12.58 140.33-13.03L140.33-13.03 137.58-13.8Q135.61-14.38 134.43-15.24 133.26-16.1 132.72-17.49 132.18-18.88 132.11-21.08L132.11-21.08Q132.08-21.98 132.08-22.56 132.08-23.15 132.11-23.8L132.11-23.8Q132.21-27.3 133.8-28.84 135.38-30.38 139.33-30.38L139.33-30.38Q143.06-30.38 144.62-28.89 146.18-27.4 146.31-23.85L146.31-23.85Q146.31-23.33 146.31-21.94 146.31-20.55 146.21-19.65L146.21-19.65 142.51-19.65Q142.56-20.45 142.56-21.33 142.56-22.2 142.56-22.99 142.56-23.78 142.53-24.33L142.53-24.33Q142.51-26 141.82-26.64 141.13-27.28 139.33-27.28L139.33-27.28Q137.53-27.28 136.82-26.64 136.11-26 136.06-24.3L136.06-24.3Q136.06-23.85 136.03-23.1 136.01-22.35 136.01-21.48L136.01-21.48Q136.06-19.7 136.46-18.63 136.86-17.55 138.43-17.1L138.43-17.1 141.03-16.43Q143.83-15.7 145.16-14.09 146.48-12.48 146.48-9.25L146.48-9.25Q146.48-8.35 146.48-7.66 146.48-6.98 146.43-6.05L146.43-6.05Q146.33-2.63 144.72-1.13 143.11 0.38 139.11 0.38Z" opacity="1" transform="matrix(1,0,0,1,0,0)" fill="#556970" class="wordmark-text-0" data-fill-palette-color="primary" id="text-0"></path></svg></g></svg></g></svg></g></svg></g></svg></g></svg></g></svg></g><g mask="url(#6abd9f88-b2b8-476b-87c3-92fe8dd0099f)"><g transform="matrix(3.065, 0, 0, 3.065, 75.16, 1)"><svg xmlns="http://www.w3.org/2000/svg" xmlns:xlink="http://www.w3.org/1999/xlink" version="1.0" x="0" y="0" viewBox="10 10 80 80" enable-background="new 0 0 100 100" xml:space="preserve" height="80" width="80" class="icon-none" data-fill-palette-color="accent" id="none"><path fill="none" stroke="#0f0f0d" stroke-linecap="round" stroke-linejoin="round" stroke-miterlimit="10" d="M90 49.999C90 72.089 72.089 90 50.001 90 27.908 90 10 72.089 10 49.999 10 27.908 27.908 10 50.001 10 72.089 10 90 27.908 90 49.999"></path><path fill="none" stroke="#0f0f0d" stroke-linecap="round" stroke-linejoin="round" stroke-miterlimit="10" d="M63.911 42.791A4.66 4.66 0 0 1 67.034 47.185C67.034 51.17 65.011 54.399 62.491 54.513 60.17 61.659 55.452 66.559 49.998 66.559S39.827 61.66 37.505 54.513C34.985 54.4 32.963 51.173 32.963 47.185A4.66 4.66 0 0 1 36.079 42.791L38.439 39.967C46.143 36.777 54.414 37.01 61.564 39.967z"></path><path fill="none" stroke="#0f0f0d" stroke-linecap="round" stroke-linejoin="round" stroke-miterlimit="10" d="M58.721 72.111C53.9 76.929 46.092 76.929 41.277 72.111A6 6 0 0 0 43.229 70.808 6 6 0 0 0 44.99 66.553V65.098C46.547 66.035 48.233 66.557 50 66.557S53.457 66.035 55.009 65.098V66.553A6 6 0 0 0 56.773 70.808C57.323 71.362 57.987 71.807 58.721 72.111"></path><path fill="none" stroke="#0f0f0d" stroke-linecap="round" stroke-linejoin="round" stroke-miterlimit="10" d="M47.647 48.825A3.53 3.53 0 1 1 40.587 48.821 3.53 3.53 0 0 1 47.647 48.825"></path><path fill="none" stroke="#0f0f0d" stroke-linecap="round" stroke-linejoin="round" stroke-miterlimit="10" d="M59.411 48.825A3.53 3.53 0 0 1 55.88 52.353 3.527 3.527 0 0 1 52.353 48.825 3.53 3.53 0 0 1 55.88 45.294 3.53 3.53 0 0 1 59.411 48.825"></path><path fill="none" stroke="#0f0f0d" stroke-linecap="round" stroke-linejoin="round" stroke-miterlimit="10" d="M52.353 48.821"></path><path fill="none" stroke="#0f0f0d" stroke-linecap="round" stroke-linejoin="round" stroke-miterlimit="10" d="M36.079 42.791L40.589 48.822z"></path><path fill="none" stroke="#0f0f0d" stroke-linecap="round" stroke-linejoin="round" stroke-miterlimit="10" d="M63.908 42.791L59.401 48.822z"></path><path fill="none" stroke="#0f0f0d" stroke-linecap="round" stroke-linejoin="round" stroke-miterlimit="10" d="M49.999 90C60.345 90 69.774 86.07 76.875 79.628L58.724 72.111A12.3 12.3 0 0 1 49.999 75.723H50.002A12.3 12.3 0 0 1 41.277 72.111L23.126 79.628C30.226 86.07 39.655 90 50.001 90z"></path><path fill="none" stroke="#0f0f0d" stroke-linecap="round" stroke-linejoin="round" stroke-miterlimit="10" d="M63.911 42.791V40.44A42.6 42.6 0 0 1 67.16 24.121 25.5 25.5 0 0 0 60.104 31.18 13.28 13.28 0 0 0 56.204 21.767C56.204 25.269 54.843 28.447 52.628 30.823 51.688 28.216 51.14 25.418 51.14 22.49H51.14A26 26 0 0 0 47.246 31.9 16.6 16.6 0 0 1 44.762 19.413 16.58 16.58 0 0 0 39.889 31.177 25.5 25.5 0 0 0 32.83 24.121 42.6 42.6 0 0 1 36.079 40.44V42.791L38.439 39.967C46.143 36.777 54.414 37.01 61.564 39.967z"></path><path fill="none" stroke="#0f0f0d" stroke-linecap="round" stroke-linejoin="round" stroke-miterlimit="10" d="M55.884 57.096A3.68 3.68 0 0 1 53.932 59.09 3.6 3.6 0 0 1 52.554 59.372 3.6 3.6 0 0 1 49.999 58.292 3.58 3.58 0 0 1 47.451 59.372 3.57 3.57 0 0 1 44.9 58.292H44.9C45.234 58.63 45.629 58.902 46.07 59.09 46.495 59.269 46.962 59.372 47.451 59.372A3.6 3.6 0 0 0 48.832 59.09C49.273 58.902 49.668 58.63 49.999 58.292A3.57 3.57 0 0 0 52.554 59.372 3.57 3.57 0 0 0 55.099 58.292 3.7 3.7 0 0 0 55.884 57.096"></path><path fill="none" stroke="#0f0f0d" stroke-linecap="round" stroke-linejoin="round" stroke-miterlimit="10" d="M41.279 72.115L45.689 89.75C47.106 89.902 48.542 90 49.998 90 51.46 90 52.897 89.902 54.314 89.75L58.723 72.111A12.3 12.3 0 0 1 49.998 75.723 12.28 12.28 0 0 1 41.279 72.115"></path></svg></g></g></svg></g><defs></defs></svg><rect width="395.52" height="247.2" fill="none" stroke="none" visibility="hidden"></rect></g></svg></g></svg>